<svg width="1169" height="1178" viewBox="0 0 1169 1178" fill="none" xmlns="http://www.w3.org/2000/svg">
<path d="M615.754 10.7667C629.182 -4.78602 656.652 -3.22004 667.61 13.7229L1164.99 782.812C1177.01 801.385 1160.45 824.094 1135.92 822.696L28.9964 759.591C4.46495 758.193 -8.50705 733.801 6.21357 716.751L615.754 10.7667Z" fill="#769CD6" fill-opacity="0.81"/>
<path d="M37.0082 849.97C22.7793 839.37 21.1682 820.789 33.4098 808.468L329.056 510.91C341.297 498.589 362.756 497.194 376.985 507.794L677.222 731.458C691.451 742.058 693.062 760.639 680.821 772.96L385.175 1070.52C372.933 1082.84 351.475 1084.23 337.246 1073.63L37.0082 849.97Z" fill="#8C98F7"/>
<path d="M751.73 667.628C902.917 646.205 1046.94 742.422 1073.42 882.533C1099.9 1022.64 998.805 1153.59 847.618 1175.02C696.432 1196.44 552.405 1100.22 525.927 960.111C499.448 819.999 600.543 689.05 751.73 667.628Z" fill="#D2D7FD"/>
<path d="M617.351 714.351C563.509 713.89 516.18 703.328 475.364 682.666C435.086 661.547 403.693 632.656 381.187 595.993C359.213 559.335 348.498 517.233 349.041 469.688C349.442 434.606 356.472 402.581 370.131 373.614C384.329 344.19 403.546 318.733 427.783 297.243C452.553 275.758 481.266 259.154 513.922 247.43C547.111 235.712 583.163 230.019 622.079 230.352C643.935 230.539 668.431 233.057 695.566 237.906C722.707 242.293 749.528 251.294 776.03 264.909L778.082 365.335L728.504 364.911L713.428 284.455C699.114 277.407 685.042 272.44 671.214 269.551C657.918 266.668 644.873 265.171 632.079 265.061C596.361 264.756 563.753 272.324 534.254 287.768C504.754 303.211 481.032 326.322 463.087 357.099C445.68 387.418 436.718 425.197 436.202 470.434C435.685 515.671 443.247 553.822 458.886 584.886C474.526 615.951 496.383 639.451 524.458 655.388C553.066 671.329 585.495 679.454 621.745 679.765C637.205 679.897 652.947 678.647 668.971 676.014C685.534 672.925 701.582 668.215 717.116 661.885L734.026 581.702L783.603 582.127L779.258 682.498C754.604 693.829 728.388 701.914 700.609 706.754C673.358 712.061 645.605 714.593 617.351 714.351Z" fill="#1A0F46"/>
</svg>
